HIERARCHY
ROOT hip
{
	OFFSET 0.000000 0.000000 0.000000
	CHANNELS 6 Xposition Yposition Zposition Xrotation Zrotation Yrotation 
	JOINT abdomen
	{
		OFFSET 0.000000 3.422050 0.000000
		CHANNELS 3 Xrotation Zrotation Yrotation 
		JOINT chest
		{
			OFFSET 0.000000 8.486693 -0.684411
			CHANNELS 3 Xrotation Zrotation Yrotation 
			JOINT neck
			{
				OFFSET 0.000000 10.266162 -0.273764
				CHANNELS 3 Xrotation Zrotation Yrotation 
				JOINT head
				{
					OFFSET 0.000000 3.148285 0.000000
					CHANNELS 3 Xrotation Zrotation Yrotation 
					End Site
					{
						OFFSET 0.000000 3.148289 0.000000
					}
				}
			}
			JOINT lCollar
			{
				OFFSET 3.422053 6.707223 -0.821293
				CHANNELS 3 Yrotation Zrotation Xrotation 
				JOINT lShldr
				{
					OFFSET 3.285171 0.000000 0.000000
					CHANNELS 3 Zrotation Yrotation Xrotation 
					JOINT lForeArm
					{
						OFFSET 10.129278 0.000000 0.000000
						CHANNELS 3 Yrotation Zrotation Xrotation 
						JOINT lHand
						{
							OFFSET 8.486692 0.000000 0.000000
							CHANNELS 3 Zrotation Yrotation Xrotation 
							End Site
							{
								OFFSET 4.106464 0.000000 0.000000
							}
						}
					}
				}
			}
			JOINT rCollar
			{
				OFFSET -3.558935 6.707223 -0.821293
				CHANNELS 3 Yrotation Zrotation Xrotation 
				JOINT rShldr
				{
					OFFSET -3.148289 0.000000 0.000000
					CHANNELS 3 Zrotation Yrotation Xrotation 
					JOINT rForeArm
					{
						OFFSET -10.266159 0.000000 0.000000
						CHANNELS 3 Yrotation Zrotation Xrotation 
						JOINT rHand
						{
							OFFSET -8.349810 0.000000 0.000000
							CHANNELS 3 Zrotation Yrotation Xrotation 
							End Site
							{
								OFFSET -4.106464 0.000000 0.000000
							}
						}
					}
				}
			}
		}
	}
	JOINT lThigh
	{
		OFFSET 5.338403 -1.642589 1.368821
		CHANNELS 3 Xrotation Zrotation Yrotation 
		JOINT lShin
		{
			OFFSET -2.053232 -20.121670 0.000000
			CHANNELS 3 Xrotation Zrotation Yrotation 
			JOINT lFoot
			{
				OFFSET 0.000000 -19.300380 -1.231939
				CHANNELS 3 Xrotation Yrotation Zrotation 
				End Site
				{
					OFFSET 0.000000 -2.463878 4.653993
				}
			}
		}
	}
	JOINT rThigh
	{
		OFFSET -5.338403 -1.642589 1.368821
		CHANNELS 3 Xrotation Zrotation Yrotation 
		JOINT rShin
		{
			OFFSET 2.053232 -20.121670 0.000000
			CHANNELS 3 Xrotation Zrotation Yrotation 
			JOINT rFoot
			{
				OFFSET 0.000000 -19.300380 -1.231939
				CHANNELS 3 Xrotation Yrotation Zrotation 
				End Site
				{
					OFFSET 0.000000 -2.463878 4.653993
				}
			}
		}
	}
}
MOTION
Frames: 11
Frame Time: 0.033264
0.000000 43.528500 0.000000 0.000000 0.000000 0.000000 0.000000 0.000000 0.000000 0.000000 0.000000 0.000000 0.000000 0.000000 0.000000 0.000000 0.000000 0.000000 0.000000 0.000000 0.000000 0.000000 0.000000 0.000000 0.000000 0.000000 0.000000 0.000000 0.000000 0.000000 0.000000 0.000000 0.000000 0.000000 0.000000 0.000000 0.000000 0.000000 0.000000 0.000000 0.000000 0.000000 0.000000 0.000000 0.000000 0.000000 0.000000 0.000000 0.000000 0.000000 0.000000 0.000000 0.000000 0.000000 0.000000 0.000000 0.000000 0.000000 0.000000 0.000000 
0.820027 31.312294 0.777975 38.998096 0.000000 0.000000 -0.104447 0.610036 -0.240112 -23.784643 0.570099 -1.136834 0.326979 0.000000 0.000000 0.312990 0.148626 0.000408 -24.473969 -16.704033 -12.112324 -38.692852 11.771340 59.299934 -16.034367 -2.755809 1.171486 34.268375 -36.050266 -9.119636 -40.692295 10.084846 10.489990 91.989914 76.999756 -0.009743 102.323013 45.568459 -21.563360 30.025791 12.909699 -36.553356 -43.577862 54.764462 -16.707310 87.380806 0.215924 -0.400693 70.196442 11.522085 -42.439445 -43.577652 -54.784405 16.687269 87.371094 -0.231064 0.386214 70.196854 -11.539255 42.407135 
0.820027 31.244209 0.944514 37.563972 0.000000 0.000000 0.339738 0.610075 -0.240110 -22.568691 0.569994 -1.136815 0.491724 0.000000 0.000000 0.623559 0.295368 -0.025979 -24.865971 -16.102335 -12.689048 -38.894241 11.838362 59.265560 -16.540943 -2.881046 1.135068 33.796341 -35.541553 -8.911769 -40.053020 10.098948 10.087240 90.626244 77.155365 -1.395270 102.095901 45.403484 -21.400431 29.876657 12.740241 -36.635265 -40.989544 55.724339 -14.959127 86.807350 0.196518 -0.406316 69.849426 11.866010 -41.364830 -40.991184 -55.737808 14.947193 86.798920 -0.212255 0.393020 69.851410 -11.879867 41.341770 
0.820027 31.176125 1.111053 36.126213 0.000000 0.000000 0.784029 0.610115 -0.240109 -21.350529 0.569888 -1.136798 0.656532 0.000000 0.000000 0.934249 0.442337 -0.051585 -25.250835 -15.496369 -13.260272 -39.095718 11.905264 59.230911 -17.047815 -3.005996 1.097525 33.329285 -35.031219 -8.710231 -39.413273 10.108627 9.684105 89.229660 77.303528 -2.813744 101.870125 45.238056 -21.238899 29.727859 12.570564 -36.716671 -38.281235 56.638535 -13.087955 86.233696 0.177048 -0.411748 69.494873 12.203994 -40.285091 -38.285778 -56.645794 13.085185 86.226509 -0.193372 0.399641 69.498604 -12.214610 40.271381 
0.820027 31.108040 1.277593 34.685253 0.000000 0.000000 1.228414 0.610155 -0.240107 -20.130415 0.569781 -1.136783 0.821402 0.000000 0.000000 1.245055 0.589525 -0.076409 -25.628611 -14.886283 -13.826059 -39.297298 11.972050 59.196014 -17.554985 -3.130647 1.058862 32.867111 -34.519344 -8.514910 -38.773125 10.113878 9.280670 87.800583 77.443863 -4.264626 101.645630 45.072159 -21.078747 29.579401 12.400672 -36.797573 -35.450348 57.502167 -11.091167 85.659821 0.157518 -0.416986 69.132912 12.535810 -39.200386 -35.458965 -57.503563 11.098722 85.653923 -0.174417 0.406075 69.138512 -12.543274 39.196121 
0.820027 31.039955 1.444132 33.241531 0.000000 0.000000 1.672879 0.610194 -0.240105 -18.908642 0.569675 -1.136770 0.986335 0.000000 0.000000 1.555978 0.736928 -0.100447 -25.999353 -14.272242 -14.386489 -39.498985 12.038720 59.160881 -18.062426 -3.254982 1.019080 32.409660 -34.006004 -8.325690 -38.132660 10.114688 8.877016 86.339943 77.576210 -5.747121 101.422440 44.905830 -20.919975 29.431269 12.230568 -36.877979 -32.495892 58.310364 -8.967666 85.085770 0.137930 -0.422030 68.763687 12.861238 -38.110909 -32.509804 -58.306259 8.986774 85.081139 -0.155392 0.412321 68.771278 -12.865621 38.116169 
0.820027 30.971870 1.610671 31.795498 0.000000 0.000000 2.117412 0.610234 -0.240102 -17.685461 0.569568 -1.136760 1.151328 0.000000 0.000000 1.867015 0.884536 -0.123698 -26.363092 -13.654387 -14.941620 -39.700764 12.105268 59.125492 -18.570118 -3.378986 0.978183 31.956850 -33.491291 -8.142467 -37.491982 10.111057 8.473233 84.848579 77.700279 -7.260350 101.200531 44.739052 -20.762562 29.283476 12.060255 -36.957882 -29.418623 59.058064 -6.718156 84.511581 0.118288 -0.426878 68.387337 13.180044 -37.016834 -29.439119 -59.048920 6.750107 84.508232 -0.136302 0.418378 68.397049 -13.181445 37.031708 
0.820027 30.903786 1.777210 30.347616 0.000000 0.000000 2.561997 0.610273 -0.240100 -16.461170 0.569460 -1.136752 1.316382 0.000000 0.000000 2.178165 1.032345 -0.146159 -26.719908 -13.032888 -15.491542 -39.902641 12.171698 59.089851 -19.078051 -3.502643 0.936174 31.508554 -32.975250 -7.965132 -36.851170 10.102979 8.069406 83.327621 77.815758 -8.803122 100.979897 44.571838 -20.606506 29.136003 11.889731 -37.037277 -26.221563 59.740345 -4.345586 83.937256 0.098594 -0.431530 68.003990 13.492020 -35.918365 -26.249964 -59.726658 4.391696 83.935211 -0.117148 0.424246 68.015968 -13.490532 35.942924 
0.820027 30.835701 1.943749 28.898350 0.000000 0.000000 3.006623 0.610313 -0.240097 -15.236042 0.569353 -1.136746 1.481496 0.000000 0.000000 2.489426 1.180346 -0.167829 -27.069838 -12.407896 -16.036320 -40.104618 12.238006 59.053959 -19.586203 -3.625939 0.893058 31.064650 -32.457977 -7.793578 -36.210300 10.090449 7.665618 81.778564 77.922485 -10.374038 100.760529 44.404190 -20.451797 28.988874 11.719010 -37.116196 -22.910286 60.352360 -1.855468 83.362885 0.078852 -0.435986 67.613838 13.796945 -34.815689 -22.947893 -60.334728 1.917024 83.362091 -0.097933 0.429922 67.628181 -13.792674 34.850021 
0.820027 30.767616 2.110288 27.448149 0.000000 0.000000 3.451276 0.610353 -0.240093 -14.010346 0.569245 -1.136743 1.646669 0.000000 0.000000 2.800797 1.328534 -0.188705 -27.412933 -11.779559 -16.576029 -40.306686 12.304190 59.017822 -20.094568 -3.748859 0.848838 30.625042 -31.939547 -7.627705 -35.569481 10.073474 7.261958 80.202873 78.020172 -11.971576 100.542427 44.236130 -20.298424 28.842070 11.548086 -37.194611 -19.493195 60.889561 0.743862 82.788429 0.059064 -0.440243 67.217049 14.094620 -33.709038 -19.541239 -60.868637 -0.665638 82.788925 -0.078661 0.435406 67.233879 -14.087666 33.753201 
0.820027 30.699532 2.276827 25.997480 0.000000 0.000000 3.895942 0.610392 -0.240090 -12.784370 0.569137 -1.136741 1.811901 0.000000 0.000000 3.112278 1.476901 -0.208785 -27.749258 -11.148034 -17.110752 -40.508862 12.370249 58.981449 -20.603115 -3.871387 0.803518 30.189621 -31.420021 -7.467413 -34.928783 10.052052 6.858510 78.602402 78.108536 -13.593827 100.325562 44.067642 -20.146381 28.695593 11.376967 -37.272541 -17.152246 61.842392 2.244737 82.213974 0.039234 -0.444302 66.813789 14.384843 -32.598625 -17.199188 -61.814983 -2.161408 82.215744 -0.059334 0.440697 66.833244 -14.375325 32.652695 
